D:\school\WTK\thesis\model\3dpredictsim\Results\batch_windlass\Pog_s1_tmt_aCst_d00_k800_WL20_ig24_act_TTC_GRF.mot
nRows=20
nColumns=19

name D:\school\WTK\thesis\model\3dpredictsim\Results\batch_windlass\Pog_s1_tmt_aCst_d00_k800_WL20_ig24_act_TTC_GRF.mot
datacolumns 19
datarows 20
range 0.6177726319 0.8525262320
endheader
time 	ground_force_vx	ground_force_vy	ground_force_vz	ground_force_px	ground_force_py	ground_force_pz	1_ground_force_vx	1_ground_force_vy	1_ground_force_vz	1_ground_force_px	1_ground_force_py	1_ground_force_pz	ground_torque_x	ground_torque_y	ground_torque_z	1_ground_torque_x	1_ground_torque_y	1_ground_torque_z
        0.6177726319	       86.5983606418	      340.8334315635	        1.9897543416	        0.3843496572	        0.0000000000	        0.0328762208	      -37.0749730734	       30.3251518766	       -4.2968525030	        0.9633408851	        0.0000000000	       -0.0739782570	        0.0000000000	        0.0000000000	        0.0000000000	        0.0000000000	        0.0000000000	        0.0000000000	
        0.6301280846	       53.8609228847	      240.5452060068	       10.4879663032	        0.3968061737	        0.0000000000	        0.0271606861	     -151.4793702158	      147.8673556549	      -18.1466782359	        0.9756155772	        0.0000000000	       -0.0734590252	        0.0000000000	        0.0000000000	        0.0000000000	        0.0000000000	        0.0000000000	        0.0000000000	
        0.6424835372	       41.9071592077	      203.3742013434	       15.4113284043	        0.3974333131	        0.0000000000	        0.0269003689	     -101.7975640476	      474.3744706265	       10.6202714883	        0.9879004641	        0.0000000000	       -0.0716171882	        0.0000000000	        0.0000000000	        0.0000000000	        0.0000000000	        0.0000000000	        0.0000000000	
        0.6548389898	       32.4305001455	      148.1836481663	       23.1178245327	        0.3975196155	        0.0000000000	        0.0275700189	     -180.6172226686	      866.1882378519	       22.3614821176	        1.0029351282	        0.0000000000	       -0.0682100868	        0.0000000000	        0.0000000000	        0.0000000000	        0.0000000000	        0.0000000000	        0.0000000000	
        0.6671944425	       17.0328571511	       79.2049414685	       21.8953136256	        0.3975414925	        0.0000000000	        0.0282376402	     -204.3967290273	      992.8717694305	       24.7487756084	        1.0086863544	        0.0000000000	       -0.0661746449	        0.0000000000	        0.0000000000	        0.0000000000	        0.0000000000	        0.0000000000	        0.0000000000	
        0.6795498951	       -5.3853140455	       15.0535328879	        4.0616973810	        0.3932214736	        0.0000000000	        0.0271539096	     -189.7303810495	      946.9707239182	       27.1406993350	        1.0121173081	        0.0000000000	       -0.0648989215	        0.0000000000	        0.0000000000	        0.0000000000	        0.0000000000	        0.0000000000	        0.0000000000	
        0.6919053477	        0.8401867548	       -0.7132629156	        0.0583094207	        0.0000000000	        0.0000000000	        0.0000000000	     -162.8839507207	      871.1574732323	       26.1392158534	        1.0148505418	        0.0000000000	       -0.0641985638	        0.0000000000	        0.0000000000	        0.0000000000	        0.0000000000	        0.0000000000	        0.0000000000	
        0.7042608004	       -3.9933417897	        2.8376660403	       -0.4096480897	        0.0000000000	        0.0000000000	        0.0000000000	     -141.1826877222	      803.6849365421	       23.8473819010	        1.0174569749	        0.0000000000	       -0.0637504279	        0.0000000000	        0.0000000000	        0.0000000000	        0.0000000000	        0.0000000000	        0.0000000000	
        0.7166162530	       -1.9520352691	        1.2199882018	       -0.2050206165	        0.0000000000	        0.0000000000	        0.0000000000	     -124.7014480088	      758.8926137104	       21.1020740587	        1.0196073779	        0.0000000000	       -0.0635352815	        0.0000000000	        0.0000000000	        0.0000000000	        0.0000000000	        0.0000000000	        0.0000000000	
        0.7289717057	       -0.3942327904	        0.2262974038	       -0.0372166522	        0.0000000000	        0.0000000000	        0.0000000000	     -105.4465232820	      725.4319192214	       20.9648248666	        1.0214738362	        0.0000000000	       -0.0634442752	        0.0000000000	        0.0000000000	        0.0000000000	        0.0000000000	        0.0000000000	        0.0000000000	
        0.7413271583	       -0.1568756723	        0.0853623849	       -0.0125347571	        0.0000000000	        0.0000000000	        0.0000000000	      -88.6334262246	      687.4695990266	       19.9516851442	        1.0238399451	        0.0000000000	       -0.0633298194	        0.0000000000	        0.0000000000	        0.0000000000	        0.0000000000	        0.0000000000	        0.0000000000	
        0.7536826109	       -0.1698115523	        0.0898249393	       -0.0109713180	        0.0000000000	        0.0000000000	        0.0000000000	      -74.6910673136	      657.0418904675	       20.7594008358	        1.0275945491	        0.0000000000	       -0.0630071787	        0.0000000000	        0.0000000000	        0.0000000000	        0.0000000000	        0.0000000000	        0.0000000000	
        0.7660380636	       -0.0935279076	        0.0484448799	       -0.0049292721	        0.0000000000	        0.0000000000	        0.0000000000	      -65.0305169546	      635.0614305507	       21.8711611051	        1.0325653122	        0.0000000000	       -0.0624360348	        0.0000000000	        0.0000000000	        0.0000000000	        0.0000000000	        0.0000000000	        0.0000000000	
        0.7783935162	       -0.0459020584	        0.0228843273	       -0.0023049369	        0.0000000000	        0.0000000000	        0.0000000000	      -57.6004425635	      618.8371965796	       22.1335996719	        1.0380819298	        0.0000000000	       -0.0617200869	        0.0000000000	        0.0000000000	        0.0000000000	        0.0000000000	        0.0000000000	        0.0000000000	
        0.7907489689	       -0.0273487097	        0.0130276515	       -0.0014083302	        0.0000000000	        0.0000000000	        0.0000000000	      -51.0861169091	      606.7061942618	       21.9942967630	        1.0438862769	        0.0000000000	       -0.0608931829	        0.0000000000	        0.0000000000	        0.0000000000	        0.0000000000	        0.0000000000	        0.0000000000	
        0.8031044215	       -0.0210251789	        0.0095721871	       -0.0011272525	        0.0000000000	        0.0000000000	        0.0000000000	      -45.5534820021	      597.2196520438	       21.3502969369	        1.0497662173	        0.0000000000	       -0.0599925126	        0.0000000000	        0.0000000000	        0.0000000000	        0.0000000000	        0.0000000000	        0.0000000000	
        0.8154598741	       -0.0213081270	        0.0093237575	       -0.0011371036	        0.0000000000	        0.0000000000	        0.0000000000	      -40.6956791374	      588.7363517660	       20.5626237651	        1.0554351733	        0.0000000000	       -0.0590809901	        0.0000000000	        0.0000000000	        0.0000000000	        0.0000000000	        0.0000000000	        0.0000000000	
        0.8278153268	       -0.0278864911	        0.0118140832	       -0.0014266515	        0.0000000000	        0.0000000000	        0.0000000000	      -37.1335903295	      581.6708277635	       19.8190840165	        1.0608468125	        0.0000000000	       -0.0581774034	        0.0000000000	        0.0000000000	        0.0000000000	        0.0000000000	        0.0000000000	        0.0000000000	
        0.8401707794	       -0.0446166679	        0.0184222194	       -0.0021139694	        0.0000000000	        0.0000000000	        0.0000000000	      -33.9670647896	      576.4388373194	       19.4842314461	        1.0660351706	        0.0000000000	       -0.0572819375	        0.0000000000	        0.0000000000	        0.0000000000	        0.0000000000	        0.0000000000	        0.0000000000	
        0.8525262320	       -0.0817719860	        0.0330599071	       -0.0035118376	        0.0000000000	        0.0000000000	        0.0000000000	      -30.8214188139	      571.8631320328	       19.4385679054	        1.0709999144	        0.0000000000	       -0.0563991429	        0.0000000000	        0.0000000000	        0.0000000000	        0.0000000000	        0.0000000000	        0.0000000000	
